<svg width="345" height="346" viewBox="0 0 345 346" fill="none" xmlns="http://www.w3.org/2000/svg">
  <g clip-path="url(#clip0_108_11847)">
    <path d="M247.827 269.737L270.814 246.257C263.044 230.298 256.678 221.719 261.884 208.789C267.11 195.822 277.792 193.987 294.384 187.85L294.103 155.065C277.532 149.399 266.721 147.821 261.259 134.962C255.819 122.152 262.078 113.341 269.538 97.2683L246.155 74.3758C230.316 82.1314 221.59 88.6275 208.653 83.4605C195.702 78.2937 193.918 67.6404 187.85 51.0432L155.066 51.4584C149.304 68.1266 147.703 78.8802 134.829 84.3885C121.977 89.8892 113.142 83.6157 97.1729 76.2629L74.1862 99.7428C81.8687 115.516 88.3359 124.252 83.1162 137.211C77.8329 150.278 66.8864 152.139 50.6232 158.142L50.8967 190.934C67.4822 196.6 78.286 198.185 83.741 211.038C89.1884 223.855 82.9075 232.687 75.4615 248.731L98.8451 271.624C114.692 263.861 123.396 257.387 136.426 262.574L136.433 262.581C149.291 267.713 151.053 278.331 157.136 294.956L189.927 294.534C195.667 277.916 197.282 267.119 210.149 261.604C223.002 256.103 231.88 262.391 247.827 269.737ZM136.939 209.324C116.956 189.76 116.688 157.643 136.325 137.584C155.962 117.526 188.078 117.112 208.061 136.676C228.044 156.239 228.312 188.357 208.675 208.415C189.038 228.473 156.922 228.887 136.939 209.324ZM194.205 194.249C182.441 206.265 163.13 206.51 151.163 194.794C139.197 183.079 139.031 163.767 150.795 151.751C162.558 139.735 181.87 139.49 193.837 151.205C205.803 162.921 205.969 182.233 194.205 194.249Z" fill="#B1B1B1"/>
  </g>
  <defs>
    <clipPath id="clip0_108_11847">
      <rect width="243" height="244" fill="white" transform="translate(171.026 0.825195) rotate(44.3919)"/>
    </clipPath>
  </defs>
</svg>
