<svg width="430" height="440" viewBox="0 0 430 440" fill="none" xmlns="http://www.w3.org/2000/svg">
  <g clip-path="url(#clip0_108_11845)">
    <path d="M339.067 131.49L310.935 100.282C289.935 108.938 278.469 116.386 262.378 108.715C246.243 101.015 244.758 87.2318 238.256 65.5618L196.374 63.3228C187.808 84.0311 184.924 97.709 168.066 103.664C151.274 109.595 140.527 100.905 120.605 90.1072L89.4969 118.149C98.1262 138.986 105.719 150.641 98.0823 166.749C90.4445 182.874 76.699 184.309 55.0201 190.741L52.9156 232.63C73.7343 241.307 87.3359 244.203 93.3341 261.077C99.3246 277.922 90.6045 288.705 79.9332 308.51L108.065 339.719C128.821 331.16 140.495 323.595 156.622 331.286C172.881 339.066 174.377 353.19 180.735 374.429L222.626 376.678C231.193 355.951 234.085 342.283 250.934 336.337C267.736 330.397 278.509 339.116 298.395 349.893L329.503 321.852C320.865 301.005 313.298 289.379 320.969 273.154L320.978 273.145C328.564 257.136 342.263 255.727 363.979 249.278L366.075 207.379C345.319 198.733 331.663 195.816 325.655 178.951C319.665 162.106 328.406 151.269 339.067 131.49ZM253.02 268.28C226.436 292.244 185.407 290.042 161.375 263.381C137.343 236.721 139.395 195.684 165.98 171.72C192.564 147.757 233.593 149.959 257.625 176.619C281.657 203.28 279.605 244.317 253.02 268.28ZM238.375 193.972C252.772 209.943 251.532 234.618 235.612 248.968C219.692 263.319 195.021 262 180.625 246.029C166.228 230.058 167.468 205.383 183.388 191.032C199.308 176.682 223.979 178.001 238.375 193.972Z" fill="#B1B1B1"/>
  </g>
  <defs>
    <clipPath id="clip0_108_11845">
      <rect width="311" height="312" fill="white" transform="translate(-10.45 208.242) rotate(-42.032)"/>
    </clipPath>
  </defs>
</svg>
