<svg width="23" height="15" viewBox="0 0 23 15" fill="none" xmlns="http://www.w3.org/2000/svg">
  <path d="M0 1.5C0 1.23478 0.151451 0.98043 0.421034 0.792893C0.690618 0.605357 1.05625 0.5 1.4375 0.5H21.5625C21.9437 0.5 22.3094 0.605357 22.579 0.792893C22.8486 0.98043 23 1.23478 23 1.5C23 1.76522 22.8486 2.01957 22.579 2.20711C22.3094 2.39464 21.9437 2.5 21.5625 2.5H1.4375C1.05625 2.5 0.690618 2.39464 0.421034 2.20711C0.151451 2.01957 0 1.76522 0 1.5ZM0 7.5C0 7.23478 0.151451 6.98043 0.421034 6.79289C0.690618 6.60536 1.05625 6.5 1.4375 6.5H21.5625C21.9437 6.5 22.3094 6.60536 22.579 6.79289C22.8486 6.98043 23 7.23478 23 7.5C23 7.76522 22.8486 8.01957 22.579 8.20711C22.3094 8.39464 21.9437 8.5 21.5625 8.5H1.4375C1.05625 8.5 0.690618 8.39464 0.421034 8.20711C0.151451 8.01957 0 7.76522 0 7.5ZM1.4375 12.5C1.05625 12.5 0.690618 12.6054 0.421034 12.7929C0.151451 12.9804 0 13.2348 0 13.5C0 13.7652 0.151451 14.0196 0.421034 14.2071C0.690618 14.3946 1.05625 14.5 1.4375 14.5H21.5625C21.9437 14.5 22.3094 14.3946 22.579 14.2071C22.8486 14.0196 23 13.7652 23 13.5C23 13.2348 22.8486 12.9804 22.579 12.7929C22.3094 12.6054 21.9437 12.5 21.5625 12.5H1.4375Z" fill="black"/>
</svg>
